<?xml version="1.0" encoding="UTF-8"?>
<svg width="512px" height="512px" viewBox="0 0 512 512" version="1.1" xmlns="http://www.w3.org/2000/svg" xmlns:xlink="http://www.w3.org/1999/xlink">
    <title>cross-w</title>
    <g id="Page-1" stroke="none" stroke-width="1" fill="none" fill-rule="evenodd">
        <g id="cross-w" fill="#FFFFFF" fill-rule="nonzero">
            <path d="M284.284,256 L506.142,34.142 C513.953,26.332 513.953,13.668 506.142,5.858 C498.331,-1.953 485.668,-1.953 477.858,5.858 L256,227.716 L34.142,5.858 C26.331,-1.953 13.668,-1.953 5.858,5.858 C-1.953,13.668 -1.953,26.332 5.858,34.142 L227.716,256 L5.858,477.858 C-1.953,485.669 -1.953,498.332 5.858,506.142 C13.668,513.952 26.331,513.953 34.142,506.142 L256,284.284 L477.858,506.142 C485.668,513.952 498.331,513.953 506.142,506.142 C513.953,498.331 513.953,485.668 506.142,477.858 L284.284,256 Z" id="Path"></path>
        </g>
    </g>
</svg>